<?xml version="1.0" standalone="no"?>
<!DOCTYPE svg PUBLIC "-//W3C//DTD SVG 20010904//EN"
 "http://www.w3.org/TR/2001/REC-SVG-20010904/DTD/svg10.dtd">
<svg version="1.0" xmlns="http://www.w3.org/2000/svg"
 width="828.000000pt" height="828.000000pt" viewBox="0 0 828.000000 828.000000"
 preserveAspectRatio="xMidYMid meet">

<g transform="translate(0.000000,828.000000) scale(0.100000,-0.100000)"
fill="#000000" stroke="none">
<path d="M4023 6915 c-35 -8 -90 -28 -124 -46 -98 -52 -131 -97 -309 -414 -75
-134 -160 -284 -462 -820 -97 -170 -231 -409 -298 -530 -118 -211 -176 -314
-318 -565 -36 -63 -105 -185 -152 -270 -281 -502 -360 -643 -569 -1012 -82
-145 -110 -215 -118 -302 -17 -185 119 -409 292 -482 l70 -29 335 0 c363 0
1758 13 2220 20 157 3 593 7 970 11 729 6 758 8 855 57 62 31 166 143 202 217
41 85 53 131 53 210 0 122 -22 173 -202 475 -52 88 -141 239 -198 335 -57 96
-138 234 -180 305 -43 72 -115 195 -160 275 -46 80 -116 200 -156 267 -41 68
-74 126 -74 129 0 4 -40 73 -89 153 -48 80 -134 225 -191 321 -56 96 -155 265
-220 375 -185 313 -367 623 -485 825 -178 304 -196 333 -248 383 -108 106
-276 149 -444 112z m241 -80 c104 -32 164 -82 229 -192 18 -32 157 -267 307
-523 150 -256 298 -508 329 -560 31 -52 61 -102 66 -112 40 -71 243 -417 335
-573 62 -104 128 -217 147 -250 19 -33 49 -85 67 -115 18 -30 117 -199 221
-375 268 -457 368 -627 484 -823 116 -196 141 -258 141 -348 0 -140 -98 -302
-218 -362 -75 -38 -118 -41 -732 -47 -333 -3 -704 -8 -825 -10 -267 -5 -2147
-20 -2510 -20 l-260 0 -57 27 c-126 59 -226 207 -235 347 -6 103 6 137 128
354 56 100 182 324 279 497 97 173 190 338 205 365 15 28 48 86 73 130 24 44
58 105 74 135 17 30 36 64 43 76 11 17 384 678 685 1214 48 85 147 261 220
390 72 129 175 312 228 405 158 281 193 321 312 362 78 27 191 30 264 8z"/>
<path d="M3540 5823 c-89 -159 -189 -333 -222 -388 -74 -126 -92 -186 -91
-295 2 -242 173 -442 410 -482 239 -40 495 137 553 382 16 68 15 212 -3 271
-13 42 -465 799 -478 799 -3 0 -79 -129 -169 -287z"/>
<path d="M4519 5627 c-113 -39 -185 -101 -243 -207 -27 -50 -27 -51 -11 -98
22 -64 30 -194 16 -267 -16 -91 -82 -216 -149 -283 -192 -194 -452 -245 -674
-132 -32 16 -58 28 -58 25 0 -16 108 -158 180 -236 150 -164 347 -320 534
-424 l69 -38 56 29 c79 41 272 170 366 244 111 88 271 251 334 340 167 236
225 484 165 700 -40 143 -145 278 -259 334 -52 26 -73 30 -160 33 -84 3 -110
0 -166 -20z"/>
<path d="M4093 3653 c-8 -3 -13 -25 -13 -58 0 -30 -4 -65 -10 -79 -9 -25 -10
-25 -141 -28 l-131 -3 -45 -110 c-151 -372 -243 -605 -243 -615 0 -7 15 -10
41 -8 l41 3 40 100 c22 55 44 106 50 113 7 8 39 12 93 12 l83 0 20 -67 c11
-38 25 -87 32 -110 l11 -43 304 0 c168 0 305 1 306 3 1 1 8 70 17 152 10 83
21 149 27 148 9 -1 30 -59 77 -218 l24 -80 107 -2 c59 -1 107 1 107 3 0 3 -20
80 -45 171 -45 167 -46 193 -10 193 24 0 77 53 96 95 43 95 5 200 -91 251 -30
16 -63 19 -238 22 l-202 4 6 79 7 79 -154 -1 c-85 0 -160 -3 -166 -6z m279
-34 c2 -6 1 -38 -3 -72 -3 -34 -4 -65 -2 -69 2 -5 39 -8 81 -8 99 0 105 -4 97
-66 -4 -27 -12 -55 -17 -61 -7 -9 -39 -13 -94 -13 l-83 0 -5 -32 c-3 -18 -15
-136 -26 -263 -14 -148 -25 -232 -33 -237 -16 -10 -219 -10 -235 1 -13 8 -8
80 28 391 5 47 10 97 10 113 l0 27 -95 0 c-110 0 -114 3 -99 79 l9 46 89 3
c50 2 96 8 103 14 8 6 13 34 13 72 0 35 5 67 12 74 16 16 245 17 250 1z m300
-204 c54 -37 71 -102 43 -168 -23 -56 -119 -110 -139 -79 -6 9 20 248 29 262
10 16 27 12 67 -15z m-864 -252 c5 -21 13 -52 17 -69 6 -31 5 -32 -37 -36 -57
-6 -70 -1 -62 26 16 54 48 116 59 116 6 0 17 -17 23 -37z"/>
<path d="M5731 3513 c-58 -20 -114 -79 -135 -138 -37 -110 -10 -171 119 -267
116 -87 125 -99 125 -160 0 -128 -146 -149 -230 -32 -44 62 -63 56 -72 -21 -7
-70 -3 -76 67 -100 114 -39 243 -29 329 25 69 44 98 96 104 183 7 108 -12 138
-152 241 -76 56 -116 99 -116 123 0 27 29 69 55 81 14 7 42 12 61 12 35 0 57
-16 107 -79 27 -34 47 -12 47 54 0 48 -2 53 -27 63 -91 35 -207 41 -282 15z"/>
<path d="M5260 3503 c-112 -2 -208 -7 -211 -11 -4 -4 -17 -106 -29 -227 -11
-121 -27 -281 -35 -354 -8 -74 -13 -137 -11 -139 6 -5 458 -2 467 4 5 3 9 18
9 35 l0 29 -114 0 c-86 0 -115 3 -119 13 -6 16 21 348 29 356 3 3 58 8 122 11
l117 5 0 35 0 35 -112 -3 c-128 -3 -128 -3 -115 83 l7 50 120 5 120 5 0 35 c0
28 -4 35 -20 35 -11 1 -112 -1 -225 -2z"/>
<path d="M3104 3482 l-182 -2 -6 -33 c-6 -34 -53 -554 -58 -647 l-3 -55 109 2
c59 1 110 4 112 5 2 2 8 58 14 124 19 219 30 224 80 38 20 -71 39 -137 43
-146 5 -16 21 -18 112 -18 77 0 105 3 105 13 -1 6 -20 82 -44 167 -24 85 -41
160 -39 167 3 7 15 15 26 19 138 41 156 250 30 333 -48 31 -94 36 -299 33z
m110 -77 c57 -43 73 -130 36 -191 -24 -39 -105 -83 -122 -66 -8 8 -7 46 2 134
7 68 14 126 17 131 7 12 47 7 67 -8z"/>
<path d="M2366 3471 c-6 -10 -16 -96 -46 -421 -11 -118 -22 -236 -25 -262 l-6
-48 115 0 c63 0 117 3 119 8 3 4 10 92 17 196 7 104 16 201 19 215 7 26 8 26
123 29 l117 3 6 29 c4 16 4 34 0 40 -4 6 -52 10 -116 10 -124 0 -124 0 -112
76 l8 49 114 7 c119 8 131 12 131 56 l0 22 -229 0 c-127 0 -232 -4 -235 -9z"/>
<path d="M1680 2015 l0 -145 38 0 37 0 -3 145 -3 145 -35 0 -34 0 0 -145z"/>
<path d="M1807 2148 c38 -18 56 -71 51 -155 -3 -69 -6 -77 -33 -101 l-30 -25
35 6 c69 14 120 95 106 171 -9 48 -49 93 -94 106 -47 13 -64 12 -35 -2z"/>
<path d="M2064 2150 c-31 -12 -72 -66 -79 -104 -15 -75 34 -156 106 -176 33
-9 34 -9 13 8 -35 28 -44 56 -44 141 0 71 3 83 26 110 26 31 19 38 -22 21z"/>
<path d="M2173 2149 c60 -35 63 -204 6 -265 l-22 -23 33 9 c85 24 125 129 83
217 -18 38 -65 73 -98 73 -19 -1 -19 -1 -2 -11z"/>
<path d="M2360 2141 c5 -11 10 -68 10 -126 0 -58 -5 -115 -10 -126 -9 -17 -7
-19 17 -19 21 0 24 3 15 12 -14 14 -17 218 -3 218 5 0 17 -12 27 -27 10 -16
22 -33 28 -39 6 -6 38 -46 71 -88 l60 -77 5 133 c3 73 9 139 13 146 6 8 2 12
-10 12 -17 0 -18 -7 -15 -68 2 -38 2 -77 1 -87 -5 -23 -11 -17 -89 84 -51 66
-57 71 -93 71 -34 0 -37 -2 -27 -19z"/>
<path d="M2997 2153 c-4 -3 -7 -17 -7 -29 l0 -23 25 25 c16 16 34 24 48 22 22
-3 22 -6 22 -141 l0 -137 35 0 35 0 0 137 c0 135 0 138 22 141 14 2 32 -6 48
-22 l25 -25 0 29 0 30 -123 0 c-68 0 -127 -3 -130 -7z"/>
<path d="M3362 2140 c-45 -27 -76 -97 -67 -150 8 -48 59 -108 103 -120 l34 -9
-26 25 c-45 45 -49 188 -7 245 26 35 11 38 -37 9z"/>
<path d="M3501 2131 c40 -55 36 -203 -8 -246 -24 -24 19 -19 51 6 81 64 73
209 -14 254 -44 23 -53 18 -29 -14z"/>
<path d="M3675 2015 l0 -145 44 0 c35 0 41 3 32 13 -7 9 -10 60 -8 145 l2 132
-35 0 -35 0 0 -145z"/>
<path d="M3818 2140 c18 -17 22 -31 20 -63 -3 -36 -8 -44 -35 -58 l-31 -16 46
-66 c43 -63 48 -67 84 -67 l37 0 -46 66 -46 66 26 21 c57 47 33 120 -43 133
l-35 7 23 -23z"/>
<path d="M4005 2015 l0 -145 38 0 37 0 0 145 0 145 -37 0 -38 0 0 -145z"/>
<path d="M4295 2015 l0 -145 44 0 c36 0 42 2 32 14 -8 10 -11 55 -9 145 l3
131 -35 0 -35 0 0 -145z"/>
<path d="M4427 2141 c69 -44 70 -222 2 -259 -23 -13 -23 -13 10 -8 19 4 46 13
59 22 49 32 66 125 36 189 -19 41 -48 61 -100 70 l-39 7 32 -21z"/>
<path d="M4625 2015 l0 -145 40 0 40 0 -3 145 -3 145 -37 0 -37 0 0 -145z"/>
<path d="M4929 2150 c-9 -5 -22 -23 -29 -39 -18 -45 3 -80 71 -116 31 -16 64
-36 73 -44 19 -16 21 -52 4 -70 -11 -11 -9 -11 9 -2 43 22 56 78 27 119 -8 12
-43 36 -77 53 -80 39 -94 61 -61 93 17 18 8 21 -17 6z"/>
<path d="M5247 2081 c-20 -43 -46 -101 -58 -127 -11 -27 -28 -57 -36 -66 -15
-17 -14 -18 10 -18 20 0 24 4 20 19 -9 34 14 61 52 61 19 0 35 5 35 11 0 6 -6
9 -13 6 -38 -15 -46 33 -14 77 14 19 16 18 35 -20 14 -28 17 -45 11 -57 -8
-13 -6 -17 6 -17 16 0 47 -58 39 -72 -3 -5 15 -8 39 -8 l45 0 -65 143 c-36 78
-66 143 -67 145 -2 1 -19 -33 -39 -77z"/>
<path d="M5488 2148 c8 -8 12 -52 12 -133 0 -81 -4 -125 -12 -133 -9 -9 -8
-12 8 -12 18 0 19 6 16 115 -2 70 0 115 6 115 5 0 50 -52 98 -115 49 -63 91
-115 94 -115 3 0 6 55 7 121 1 67 4 132 7 145 5 19 2 24 -11 24 -16 0 -18 -9
-15 -86 2 -58 0 -84 -7 -80 -6 4 -38 43 -72 86 -59 77 -63 80 -102 80 -32 0
-38 -3 -29 -12z"/>
<path d="M5872 2140 c-69 -43 -94 -139 -52 -208 21 -34 87 -72 125 -71 14 0
10 4 -13 14 -21 9 -38 27 -47 49 -29 70 -12 189 33 222 28 22 -8 17 -46 -6z"/>
<path d="M6048 2151 l-27 -6 24 -27 c13 -16 26 -28 29 -28 3 0 5 16 4 35 -1
19 -2 34 -2 34 -1 -1 -13 -4 -28 -8z"/>
<path d="M6181 2033 c4 -71 7 -129 8 -131 6 -13 72 -42 96 -42 l30 0 -32 19
c-38 24 -48 69 -41 197 l4 84 -35 0 -36 0 6 -127z"/>
<path d="M6378 2036 l3 -124 -27 -21 c-15 -11 -22 -21 -17 -21 5 0 20 11 33
25 18 19 24 39 27 83 1 31 4 85 6 120 3 51 1 62 -12 62 -14 0 -16 -17 -13
-124z"/>
<path d="M6511 2133 c5 -17 6 -76 1 -145 l-7 -118 50 1 c27 0 45 3 38 6 -9 3
-12 43 -12 139 l0 134 30 0 c34 0 85 -23 92 -42 3 -7 6 2 6 20 l1 32 -104 0
-105 0 10 -27z"/>
<path d="M2747 2028 c-30 -67 -62 -130 -71 -140 -15 -17 -14 -18 15 -18 26 0
29 3 20 14 -9 10 -9 20 0 40 11 24 17 26 69 26 54 0 58 -2 70 -29 6 -17 9 -35
5 -40 -4 -7 10 -11 39 -11 25 0 46 1 46 3 0 2 -13 30 -28 63 -16 32 -44 94
-62 137 -19 42 -37 77 -40 77 -4 0 -32 -55 -63 -122z m58 -7 c9 -22 14 -44 11
-49 -7 -11 -61 -10 -72 1 -8 8 25 87 36 87 4 0 15 -18 25 -39z"/>
<path d="M5056 2125 c9 -14 18 -25 20 -25 2 0 4 11 4 25 0 18 -5 25 -20 25
-20 0 -20 -1 -4 -25z"/>
<path d="M6617 2033 c-14 -16 -14 -20 4 -42 l19 -23 0 41 c0 47 -1 48 -23 24z"/>
<path d="M6009 1983 c0 -4 0 -27 1 -51 1 -24 -3 -49 -10 -57 -9 -11 -4 -12 26
-5 46 11 55 24 52 75 -3 37 -5 40 -35 43 -18 2 -33 0 -34 -5z"/>
<path d="M4890 1919 l0 -46 35 1 c33 1 34 2 16 16 -10 8 -26 29 -34 45 l-16
30 -1 -46z"/>
<path d="M6713 1914 c-3 -9 -20 -22 -37 -30 l-31 -13 36 -1 c33 0 37 3 41 30
5 33 1 39 -9 14z"/>
<path d="M2241 1646 c-71 -26 -119 -103 -106 -172 3 -19 19 -50 35 -68 76 -86
203 -70 246 31 28 66 22 73 -56 73 -56 0 -70 -3 -70 -15 0 -8 6 -15 13 -16 6
0 26 -2 42 -2 70 -4 21 -87 -52 -87 -63 0 -102 33 -117 99 -7 32 16 84 45 105
29 20 98 21 126 1 17 -12 23 -12 32 -1 14 16 -9 38 -58 55 -40 13 -36 13 -80
-3z"/>
<path d="M5317 1645 c-76 -26 -115 -90 -103 -167 9 -53 31 -85 77 -109 45 -23
87 -24 134 -5 41 18 65 52 72 106 l6 40 -67 0 c-52 0 -66 -3 -66 -15 0 -11 11
-15 39 -15 47 0 58 -13 41 -45 -45 -85 -200 -37 -200 61 0 75 55 122 127 110
68 -11 76 -11 80 1 5 13 -35 36 -77 46 -14 3 -42 0 -63 -8z"/>
<path d="M2480 1507 c0 -79 3 -146 6 -150 3 -3 12 -3 20 0 10 3 14 22 14 59 0
50 2 54 23 54 17 0 34 -15 62 -55 28 -41 44 -55 61 -55 24 0 24 1 -11 49 -40
55 -42 63 -19 82 45 37 35 117 -16 144 -16 8 -54 15 -85 15 l-55 0 0 -143z
m135 83 c27 -29 10 -71 -32 -83 -49 -15 -63 -4 -63 46 0 24 3 47 7 50 14 15
70 6 88 -13z"/>
<path d="M3030 1640 c0 -6 11 -35 24 -63 13 -29 40 -88 60 -131 22 -48 40 -76
45 -70 5 5 37 69 70 142 53 118 58 132 40 132 -15 0 -28 -18 -53 -72 -18 -40
-36 -83 -40 -95 -13 -42 -33 -23 -72 69 -25 59 -46 94 -57 96 -9 2 -17 -2 -17
-8z"/>
<path d="M3340 1505 c0 -138 1 -145 20 -145 19 0 20 7 20 145 0 138 -1 145
-20 145 -19 0 -20 -7 -20 -145z"/>
<path d="M3440 1503 c0 -145 1 -153 19 -153 25 0 29 17 30 108 0 41 2 76 4 79
3 2 46 -38 96 -89 l90 -93 1 148 c0 136 -1 148 -17 145 -15 -3 -18 -17 -21
-96 -1 -50 -6 -92 -10 -92 -4 0 -48 44 -99 98 l-92 97 -1 -152z"/>
<path d="M3847 1619 c-66 -142 -117 -252 -117 -255 0 -14 41 0 50 16 9 17 21
20 85 20 65 0 74 -2 80 -20 4 -13 15 -20 30 -20 l24 0 -38 83 c-21 45 -51 111
-68 146 l-30 63 -16 -33z m67 -180 c-3 -6 -95 0 -102 6 -2 1 10 28 25 60 l28
57 26 -59 c15 -32 25 -61 23 -64z"/>
<path d="M4160 1505 c0 -136 1 -145 19 -145 25 0 27 9 23 161 -3 120 -4 129
-23 129 -18 0 -19 -8 -19 -145z"/>
<path d="M4470 1555 c0 -52 -3 -95 -7 -95 -4 0 -49 42 -100 92 l-93 93 0 -148
c0 -140 1 -147 20 -147 19 0 20 7 20 95 0 52 3 95 7 95 4 0 49 -42 100 -92
l93 -93 0 148 c0 140 -1 147 -20 147 -19 0 -20 -7 -20 -95z"/>
<path d="M4690 1505 c0 -137 1 -145 19 -145 17 0 20 8 23 47 l3 48 50 7 c38 5
57 14 78 38 37 41 35 74 -7 116 -32 32 -38 34 -100 34 l-66 0 0 -145z m142 88
c43 -39 9 -93 -59 -93 l-43 0 0 48 c0 27 3 52 7 55 13 13 77 7 95 -10z"/>
<path d="M4937 1644 c-13 -14 -7 -183 7 -219 16 -36 67 -75 101 -75 34 0 85
39 101 75 9 22 14 69 14 130 0 87 -2 95 -19 95 -18 0 -20 -10 -23 -111 -3
-102 -5 -112 -27 -130 -28 -23 -60 -24 -87 -5 -16 12 -20 30 -24 128 -4 91 -8
113 -20 116 -9 1 -19 0 -23 -4z"/>
<path d="M5560 1506 c0 -106 3 -145 13 -148 6 -2 45 -2 85 0 60 3 73 6 70 20
-2 12 -15 15 -53 15 -27 0 -55 2 -62 4 -10 4 -13 37 -13 129 0 117 -1 124 -20
124 -19 0 -20 -7 -20 -144z"/>
<path d="M5780 1505 c0 -138 1 -145 20 -145 19 0 20 7 20 145 0 138 -1 145
-20 145 -19 0 -20 -7 -20 -145z"/>
<path d="M5981 1609 c-10 -24 -39 -88 -65 -143 -25 -54 -46 -100 -46 -102 0
-14 41 0 50 16 9 17 21 20 85 20 65 0 74 -2 80 -20 6 -20 45 -29 45 -10 0 9
-118 270 -126 279 -2 2 -12 -16 -23 -40z m49 -103 c30 -67 28 -72 -30 -68 -28
2 -50 7 -48 11 2 3 11 27 22 54 10 26 22 47 27 47 5 0 18 -20 29 -44z"/>
<path d="M2831 1598 c-11 -24 -38 -83 -60 -131 -23 -49 -41 -93 -41 -98 0 -17
29 -9 40 11 9 17 21 20 85 20 64 0 77 -3 87 -20 11 -16 48 -29 48 -16 0 8
-130 276 -135 276 -2 0 -13 -19 -24 -42z m57 -100 c12 -28 21 -53 19 -54 -6
-6 -97 -7 -102 -2 -8 7 42 108 53 108 4 0 18 -23 30 -52z"/>
</g>
</svg>
